<svg enable-background="new 0 0 59 57" height="512" viewBox="0 0 59 57" width="512" xmlns="http://www.w3.org/2000/svg"><path d="m18.047 45c-2.206 0-4-1.794-4-4 0-.552.448-1 1-1s1 .448 1 1c0 1.103.897 2 2 2s2-.897 2-2-.897-2-2-2c-.552 0-1-.448-1-1s.448-1 1-1c2.206 0 4 1.794 4 4s-1.794 4-4 4z"/><path d="m40.047 25c-.256 0-.512-.098-.707-.293-.391-.391-.391-1.023 0-1.414l2-2c.391-.391 1.023-.391 1.414 0s.391 1.023 0 1.414l-2 2c-.195.195-.451.293-.707.293z"/><path d="m28.047 28c-1.683 0-3.247-.692-4.404-1.948-.373-.405-.348-1.036.056-1.411l7.313-6.778c.403-.375 1.034-.354 1.411.051 1.047 1.122 1.624 2.572 1.624 4.085 0 3.31-2.691 6.001-6 6.001zm-2.169-2.651c.642.424 1.387.651 2.169.651 2.206 0 4-1.794 4-4 0-.671-.172-1.325-.496-1.909z"/><path d="m43.043 44c-.167 0-.335-.014-.503-.042-1.42-.239-2.492-1.562-2.492-3.079v-.159c0-.312-.134-.602-.349-.755-1.049-.751-1.651-1.832-1.651-2.965 0-2.206 2.243-4 5-4s5 1.794 5 4c0 1.133-.602 2.214-1.652 2.965-.215.153-.348.443-.348.755v.28c0 .882-.389 1.717-1.066 2.29-.546.462-1.233.71-1.939.71zm.004-9c-1.626 0-3 .916-3 2 0 .657.511 1.121.816 1.338.742.532 1.184 1.422 1.184 2.382v.158c0 .543.362 1.029.824 1.106.403.067.686-.11.819-.222.227-.192.357-.47.357-.763v-.28c0-.96.442-1.851 1.184-2.381.305-.218.816-.682.816-1.339 0-1.083-1.374-1.999-3-1.999z"/><path d="m30.047 39c-1.133 0-2.214-.602-2.965-1.652-.154-.215-.443-.348-.755-.348h-.28c-.882 0-1.717-.388-2.29-1.065-.571-.676-.814-1.566-.667-2.442.239-1.421 1.562-2.493 3.079-2.493h.158c.312 0 .601-.133.755-.348.751-1.05 1.833-1.652 2.965-1.652 2.206 0 4 2.243 4 5s-1.794 5-4 5zm-3.878-6c-.543 0-1.029.362-1.106.824-.068.404.11.687.222.819.191.227.469.357.762.357h.28c.96 0 1.851.443 2.381 1.184.218.305.683.816 1.339.816 1.084 0 2-1.374 2-3s-.916-3-2-3c-.657 0-1.121.511-1.339.816-.53.741-1.42 1.184-2.381 1.184z"/><path d="m22.047 57c-2.206 0-4-1.794-4-4v-2.171c-.313.111-.649.171-1 .171-1.654 0-3-1.346-3-3h-13c-.412 0-.781-.252-.931-.635s-.05-.819.251-1.099l12.769-11.834c-.695-.806-1.089-1.84-1.089-2.932 0-2.481 2.019-4.5 4.5-4.5 1.204 0 2.341.49 3.174 1.329l17.569-16.283c.355-.329.894-.356 1.28-.066 6.307 4.73 10.923 11.345 13 18.626l.079.28c1.333 4.815 2.547 10.476 1.452 15.95l-.071.359c-.095.468-.506.805-.983.805h-20v1c0 2.206-1.794 4-4 4-.728 0-1.411-.195-2-.537v.537c0 2.206-1.794 4-4 4zm-2-9v5c0 1.103.897 2 2 2s2-.897 2-2v-4c0-.552.448-1 1-1s1 .448 1 1c0 1.103.897 2 2 2s2-.897 2-2v-2c0-.552.448-1 1-1h20.174c.862-4.932-.269-10.126-1.502-14.581 0 0 0-.001 0-.002l-.074-.263c-1.884-6.607-5.994-12.638-11.616-17.067l-17.755 16.456c-.225.208-.535.304-.837.254-.304-.048-.568-.233-.717-.501-.444-.799-1.277-1.296-2.173-1.296-1.378 0-2.5 1.122-2.5 2.5 0 .839.421 1.619 1.125 2.085.256.169.42.446.445.752s-.092.606-.317.815l-11.703 10.848h11.45c.552 0 1 .448 1 1v1c0 .551.449 1 1 1s1-.449 1-1c0-.552.448-1 1-1s1 .448 1 1z"/><path d="m16.547 36c-2.481 0-4.5-2.019-4.5-4.5s2.019-4.5 4.5-4.5 4.5 2.019 4.5 4.5-2.018 4.5-4.5 4.5zm0-7c-1.378 0-2.5 1.122-2.5 2.5s1.122 2.5 2.5 2.5 2.5-1.122 2.5-2.5-1.121-2.5-2.5-2.5z"/><path d="m57.047 48h-5c-.299 0-.583-.134-.773-.366s-.266-.536-.208-.83l.072-.36c1.013-5.063-.148-10.436-1.418-15.025l-.075-.265c-1.957-6.863-6.316-13.105-12.276-17.575-.237-.178-.383-.452-.398-.748-.016-.296.101-.583.319-.785l4.078-3.78c.368-.342.933-.357 1.32-.035l.181.151c11.422 9.519 17.093 24.003 15.17 38.747-.065.498-.489.871-.992.871zm-3.798-2h2.911c1.481-13.546-3.738-26.775-14.081-35.666l-2.566 2.377c5.823 4.669 10.084 10.981 12.056 17.894l.079.282c1.264 4.57 2.423 9.902 1.601 15.113z"/><path d="m6 28c-.256 0-.512-.098-.707-.293l-3-3c-.391-.391-.391-1.023 0-1.414l3-3c.391-.391 1.023-.391 1.414 0l3 3c.391.391.391 1.023 0 1.414l-3 3c-.195.195-.451.293-.707.293zm-1.586-4 1.586 1.586 1.586-1.586-1.586-1.586z"/><path d="m6 22c-.552 0-1-.448-1-1v-2c0-.552.448-1 1-1s1 .448 1 1v2c0 .552-.448 1-1 1z"/><path d="m11 25h-2c-.552 0-1-.448-1-1s.448-1 1-1h2c.552 0 1 .448 1 1s-.448 1-1 1z"/><path d="m6 30c-.552 0-1-.448-1-1v-2c0-.552.448-1 1-1s1 .448 1 1v2c0 .552-.448 1-1 1z"/><path d="m3 25h-2c-.552 0-1-.448-1-1s.448-1 1-1h2c.552 0 1 .448 1 1s-.448 1-1 1z"/><path d="m53 10c-.256 0-.512-.098-.707-.293l-3-3c-.391-.391-.391-1.023 0-1.414l3-3c.391-.391 1.023-.391 1.414 0l3 3c.391.391.391 1.023 0 1.414l-3 3c-.195.195-.451.293-.707.293zm-1.586-4 1.586 1.586 1.586-1.586-1.586-1.586z"/><path d="m53 4c-.552 0-1-.448-1-1v-2c0-.552.448-1 1-1s1 .448 1 1v2c0 .552-.448 1-1 1z"/><path d="m58 7h-2c-.552 0-1-.448-1-1s.448-1 1-1h2c.552 0 1 .448 1 1s-.448 1-1 1z"/><path d="m53 12c-.552 0-1-.448-1-1v-2c0-.552.448-1 1-1s1 .448 1 1v2c0 .552-.448 1-1 1z"/><path d="m50 7h-2c-.552 0-1-.448-1-1s.448-1 1-1h2c.552 0 1 .448 1 1s-.448 1-1 1z"/></svg>